<?xml version="1.0" encoding="UTF-8" standalone="no"?>
<!DOCTYPE svg PUBLIC "-//W3C//DTD SVG 1.1//EN" "http://www.w3.org/Graphics/SVG/1.1/DTD/svg11.dtd">
<svg width="100%" height="100%" viewBox="0 0 1280 1280" version="1.1" xmlns="http://www.w3.org/2000/svg" xmlns:xlink="http://www.w3.org/1999/xlink" xml:space="preserve" xmlns:serif="http://www.serif.com/" style="fill-rule:evenodd;clip-rule:evenodd;stroke-linejoin:round;stroke-miterlimit:2;">
    <g transform="matrix(1,0,0,1,342.4,496)">
        <path d="M0,0L4.48,0.64L15.36,6.4L30.08,14.72L45.44,23.04L60.16,31.36L71.68,37.76L86.4,46.08L104.96,56.32L119.68,64.64L131.2,71.04L132.48,72.32L132.48,213.76L129.92,216.32L111.36,226.56L100.48,232.96L81.92,243.2L49.92,261.12L35.2,269.44L19.2,278.4L4.48,286.72L0,287.36L-10.24,282.24L-24.96,273.92L-56.96,256L-72.32,247.04L-87.68,238.72L-102.4,230.4L-118.4,221.44L-129.28,215.04L-129.92,214.4L-129.92,72.32L-119.04,65.92L-52.48,28.8L-6.4,3.2L0,0ZM0.64,12.16L-14.72,20.48L-28.16,28.16L-45.44,37.76L-48.64,39.68L-48.64,52.48L-39.68,48L-25.6,39.68L1.92,23.68L10.88,18.56L9.6,16L1.92,12.16L0.64,12.16ZM23.04,24.32L16,28.16L0,37.12L-14.08,45.44L-27.52,53.12L-41.6,61.44L-48.64,65.28L-48.64,76.8L-45.44,75.52L-33.92,69.12L-16.64,58.88L1.28,48.64L16.64,39.68L30.08,32L32,30.72L30.72,28.16L24.32,24.32L23.04,24.32ZM43.52,36.48L37.76,40.32L24.96,47.36L-5.76,65.28L-23.68,75.52L-39.04,84.48L-48.64,89.6L-49.28,102.4L-47.36,103.04L-32,94.08L-19.84,87.04L-3.2,77.44L12.16,68.48L45.44,49.28L55.04,43.52L54.4,41.6L46.08,36.48L43.52,36.48ZM-61.44,46.72L-71.68,52.48L-72.96,53.76L-73.6,155.52L-70.4,158.72L-60.16,163.84L-60.16,46.72L-61.44,46.72ZM66.56,49.28L57.6,55.04L59.52,56.96L81.92,69.12L96.64,77.44L113.28,86.4L119.68,90.24L120.96,90.24L121.6,88.32L121.6,78.72L110.72,72.96L96,64.64L68.48,49.28L66.56,49.28ZM-85.76,60.16L-94.72,65.28L-96,66.56L-96.64,142.72L-94.08,145.28L-85.12,149.76L-84.48,149.76L-83.84,60.16L-85.76,60.16ZM44.8,62.08L35.2,67.84L35.84,69.12L46.08,74.24L60.8,82.56L74.88,90.24L89.6,98.56L108.16,108.8L119.68,115.2L121.6,115.2L121.6,104.32L119.68,102.4L107.52,96L92.8,87.68L56.96,67.84L46.72,62.08L44.8,62.08ZM-108.8,72.96L-119.04,78.72L-119.68,129.92L-117.76,131.84L-107.52,136.96L-107.52,72.96L-108.8,72.96ZM22.4,74.88L16,78.72L12.16,80.64L15.36,83.84L30.72,92.16L46.72,101.12L60.8,108.8L94.08,127.36L112.64,137.6L120.32,142.08L121.6,142.08L121.6,128.64L106.24,120.32L91.52,112L74.88,103.04L60.16,94.72L44.16,85.76L28.8,77.44L24.32,74.88L22.4,74.88ZM0.64,88.96L-11.52,95.36L-26.24,103.68L-42.24,112.64L-48.64,115.84L-49.28,167.04L-48,171.52L-37.12,177.28L-22.4,185.6L-7.04,194.56L0,198.4L3.84,197.76L33.28,181.12L51.84,170.88L51.84,117.12L46.08,113.28L32,105.6L17.28,97.28L3.2,89.6L0.64,88.96ZM62.72,123.52L62.72,240L65.92,239.36L74.88,234.24L75.52,233.6L75.52,129.92L70.4,126.72L64,123.52L62.72,123.52ZM87.04,136.32L86.4,138.24L87.04,227.2L96.64,222.08L98.56,220.16L98.56,142.72L92.8,138.88L87.04,136.32ZM-119.04,144L-119.68,145.28L-119.68,155.52L-117.12,158.08L-83.84,176.64L-70.4,184.32L-55.68,192.64L-37.76,202.88L-23.04,211.2L-21.12,211.84L-11.52,206.08L-10.88,204.16L-19.84,199.68L-34.56,191.36L-50.56,182.4L-65.28,174.08L-81.28,165.12L-96.64,156.16L-113.28,147.2L-119.04,144ZM109.44,149.12L110.08,213.76L113.92,212.48L120.96,208.64L121.6,207.36L121.6,155.52L115.84,151.68L110.72,149.12L109.44,149.12ZM-119.04,169.6L-119.68,171.52L-119.68,181.12L-118.4,183.68L-101.12,193.28L-87.68,200.96L-70.4,210.56L-55.04,219.52L-45.44,224.64L-42.88,224L-33.92,218.24L-33.92,216.96L-48.64,209.28L-64,200.32L-79.36,192L-92.8,184.32L-107.52,176L-118.4,169.6L-119.04,169.6ZM50.56,183.68L21.12,200.32L5.12,209.28L-9.6,217.6L-25.6,226.56L-42.88,236.16L-49.28,240L-54.4,242.56L-54.4,243.84L-44.8,249.6L-41.6,248.96L-28.8,241.92L0.64,225.28L17.92,215.68L32.64,207.36L46.08,199.68L51.84,196.48L51.84,183.68L50.56,183.68ZM-119.04,196.48L-119.68,204.8L-119.04,208L-84.48,227.2L-69.76,235.52L-65.92,236.8L-58.24,232.32L-58.24,229.76L-69.12,224L-82.56,216.32L-97.28,208L-108.8,201.6L-117.76,196.48L-119.04,196.48ZM49.92,209.92L33.92,218.88L19.2,227.2L3.2,236.16L-11.52,244.48L-27.52,253.44L-31.36,255.36L-30.72,257.28L-20.48,263.04L-17.28,261.76L-1.28,252.8L12.16,245.12L29.44,235.52L44.16,227.2L51.84,222.72L51.84,209.92L49.92,209.92ZM51.2,235.52L36.48,243.84L30.08,247.68L23.04,251.52L4.48,261.76L-7.68,268.8L-6.4,271.36L1.92,275.2L19.2,265.6L32.64,257.92L48.64,248.96L51.84,247.04L51.84,235.52L51.2,235.52Z" style="fill:rgb(75,105,249);fill-rule:nonzero;"/>
    </g>
    <g transform="matrix(0.667532,0,0,0.714704,122.191,4.17589)">
        <text x="585.6px" y="932.551px" style="font-family:'Arial-BoldMT', 'Arial', sans-serif;font-weight:700;font-size:123.908px;fill:rgb(75,105,249);">STUDY<tspan x="1003.31px 1037.73px " y="932.551px 932.551px "> G</tspan>RID</text>
    </g>
</svg>
